<svg xmlns="http://www.w3.org/2000/svg" viewBox="-4854 70 158.644 20">
  <defs>
    <style>
      .cls-1 {
        fill: #00b0ea;
      }
    </style>
  </defs>
  <g id="Group_27" data-name="Group 27" transform="translate(-4854 70)">
    <path id="Path_1" data-name="Path 1" class="cls-1" d="M14.964,14.044a5.313,5.313,0,0,1-1.889,4.407A8.769,8.769,0,0,1,7.506,20a11.426,11.426,0,0,1-4.455-.823A6.858,6.858,0,0,1,0,16.465L3,14.14a6.19,6.19,0,0,0,1.259,1.4,4.289,4.289,0,0,0,1.4.726,5.592,5.592,0,0,0,1.889.242,4.923,4.923,0,0,0,2.47-.533,1.874,1.874,0,0,0,.872-1.695,1.842,1.842,0,0,0-.291-1.065,2.365,2.365,0,0,0-.92-.726,15.74,15.74,0,0,0-2.179-.726c-1.017-.291-1.937-.533-2.809-.823A9.012,9.012,0,0,1,2.421,9.879,4.45,4.45,0,0,1,.92,8.232,4.6,4.6,0,0,1,.339,5.811,5.256,5.256,0,0,1,2.179,1.55,8.215,8.215,0,0,1,7.506,0c3.293,0,5.666,1.114,7.022,3.39l-3,2.324A4.708,4.708,0,0,0,9.734,3.971a5.137,5.137,0,0,0-2.324-.533,4.341,4.341,0,0,0-2.228.484,1.83,1.83,0,0,0-.823,1.6,1.48,1.48,0,0,0,.872,1.4,11.13,11.13,0,0,0,3.1.969c.823.194,1.6.436,2.421.678a7.87,7.87,0,0,1,2.131,1.017,5.063,5.063,0,0,1,1.5,1.695,5.966,5.966,0,0,1,.581,2.76" transform="translate(0 0)"/>
    <path id="Path_2" data-name="Path 2" class="cls-1" d="M47.827,12.713v7.312H43.9V12.761L37.9.8h4.261L45.89,8.839,49.764.8h4.116Z" transform="translate(-19.546 -0.413)"/>
    <path id="Path_3" data-name="Path 3" class="cls-1" d="M92.364,14.044a5.313,5.313,0,0,1-1.889,4.407A8.769,8.769,0,0,1,84.906,20a11.426,11.426,0,0,1-4.455-.823A6.858,6.858,0,0,1,77.4,16.465l3-2.324a6.19,6.19,0,0,0,1.259,1.4,4.289,4.289,0,0,0,1.4.726,5.592,5.592,0,0,0,1.889.242,4.922,4.922,0,0,0,2.47-.533,1.874,1.874,0,0,0,.872-1.695,1.842,1.842,0,0,0-.291-1.065,2.366,2.366,0,0,0-.92-.726,15.74,15.74,0,0,0-2.179-.726c-1.017-.291-1.937-.533-2.809-.823a9.012,9.012,0,0,1-2.276-1.065,4.45,4.45,0,0,1-1.5-1.646,4.9,4.9,0,0,1-.533-2.47A5.256,5.256,0,0,1,79.628,1.5,8.11,8.11,0,0,1,84.858,0c3.341,0,5.666,1.114,7.07,3.39l-3,2.324a4.708,4.708,0,0,0-1.792-1.743,5.137,5.137,0,0,0-2.324-.533,4.341,4.341,0,0,0-2.228.484,1.643,1.643,0,0,0-.872,1.55,1.48,1.48,0,0,0,.872,1.4,11.129,11.129,0,0,0,3.1.969c.823.194,1.6.436,2.421.678A7.87,7.87,0,0,1,90.233,9.54a5.063,5.063,0,0,1,1.5,1.695,5.728,5.728,0,0,1,.63,2.809" transform="translate(-39.918 0)"/>
    <path id="Path_4" data-name="Path 4" class="cls-1" d="M126.182,4.384V20.025h-3.874V4.384H116.4V.8h15.738V4.384Z" transform="translate(-60.032 -0.413)"/>
    <path id="Path_5" data-name="Path 5" class="cls-1" d="M160,20.025V.8h12.446V4.287h-8.571V8.354h7.215v3.487h-7.215v4.6h8.571v3.584Z" transform="translate(-82.518 -0.413)"/>
    <path id="Path_6" data-name="Path 6" class="cls-1" d="M213.906,20.025V7.1l-4.6,8.039h-2.276L202.477,7.1v12.93H198.7V.8h4.5l4.988,9.153L213.276.8h4.407V20.025Z" transform="translate(-102.477 -0.413)"/>
    <path id="Path_7" data-name="Path 7" class="cls-1" d="M264.864,14.044a5.313,5.313,0,0,1-1.889,4.407A8.769,8.769,0,0,1,257.406,20a11.426,11.426,0,0,1-4.455-.823,6.858,6.858,0,0,1-3.051-2.712l3-2.324a6.19,6.19,0,0,0,1.259,1.4,4.289,4.289,0,0,0,1.4.726,5.592,5.592,0,0,0,1.889.242,4.922,4.922,0,0,0,2.47-.533,1.873,1.873,0,0,0,.872-1.695,1.842,1.842,0,0,0-.291-1.065,2.366,2.366,0,0,0-.92-.726,15.739,15.739,0,0,0-2.179-.726c-1.017-.291-1.937-.533-2.809-.823a9.011,9.011,0,0,1-2.276-1.065,4.45,4.45,0,0,1-1.5-1.646,4.9,4.9,0,0,1-.533-2.47,5.256,5.256,0,0,1,1.84-4.262A8.259,8.259,0,0,1,257.406,0c3.341,0,5.666,1.114,7.07,3.39l-3,2.324a4.708,4.708,0,0,0-1.792-1.743,5.136,5.136,0,0,0-2.324-.533,4.341,4.341,0,0,0-2.228.484,1.643,1.643,0,0,0-.872,1.55,1.48,1.48,0,0,0,.872,1.4,11.13,11.13,0,0,0,3.1.969c.823.194,1.6.436,2.421.678a7.87,7.87,0,0,1,2.131,1.017,5.063,5.063,0,0,1,1.5,1.695,6.322,6.322,0,0,1,.581,2.809" transform="translate(-128.883 0)"/>
    <path id="Path_8" data-name="Path 8" class="cls-1" d="M300.48,8.661V1.3h-4.068V8.661H289.1V12.68h7.312v7.312h4.068V12.68h7.264V8.661Z" transform="translate(-149.1 -0.67)"/>
  </g>
</svg>
